<?xml version="1.0" encoding="UTF-8"?>
<svg version="1.1" xmlns="http://www.w3.org/2000/svg" width="125" height="125">
<path d="M0 0 C0 0.66 0 1.32 0 2 C0.66 1.896875 1.32 1.79375 2 1.6875 C6.32923704 2.13846219 9.65119374 4.25780133 13 7 C13 7.66 13 8.32 13 9 C14.32 9.66 15.64 10.32 17 11 C17 11.99 17 12.98 17 14 C17.66 14.33 18.32 14.66 19 15 C19.66 15.99 20.32 16.98 21 18 C20.67 18.66 20.34 19.32 20 20 C20.66 20.33 21.32 20.66 22 21 C23.20745835 24.62237505 23.22246029 27.9770595 23.25 31.75 C23.270625 32.4409375 23.29125 33.131875 23.3125 33.84375 C23.35088173 38.94852042 22.27330153 42.42946746 20 47 C19.34 47 18.68 47 18 47 C17.731875 48.093125 17.46375 49.18625 17.1875 50.3125 C16.07587544 53.7643868 15.58284654 54.75404649 13 57 C12.67 57.99 12.34 58.98 12 60 C11.34 60 10.68 60 10 60 C9.34 61.65 8.68 63.3 8 65 C7.34 65 6.68 65 6 65 C6 65.99 6 66.98 6 68 C6.928125 67.690625 6.928125 67.690625 7.875 67.375 C8.57625 67.25125 9.2775 67.1275 10 67 C10.99 67.99 10.99 67.99 12 69 C11.67 69.33 11.34 69.66 11 70 C14.51033129 71.68630119 14.51033129 71.68630119 18.3125 71.625 C19.1478125 71.315625 19.1478125 71.315625 20 71 C19.505 72.485 19.505 72.485 19 74 C19.99 74.99 20.98 75.98 22 77 C20.7625 76.79375 19.525 76.5875 18.25 76.375 C14.88090165 75.93892876 12.87158079 75.96596361 10 78 C10 78.66 10 79.32 10 80 C11.32 80.33 12.64 80.66 14 81 C14 81.66 14 82.32 14 83 C11.4562544 82.49125088 8.94414027 81.98501324 6.4375 81.3125 C3.58545931 80.94685376 2.39542737 81.49176795 0 83 C0.99 83.495 0.99 83.495 2 84 C2 84.99 2 85.98 2 87 C1.35933594 86.9278125 0.71867187 86.855625 0.05859375 86.78125 C-9.81301703 85.23344955 -9.81301703 85.23344955 -19 88 C-19.66 87.01 -20.32 86.02 -21 85 C-20.34 85 -19.68 85 -19 85 C-19.66 83.68 -20.32 82.36 -21 81 C-22.4800841 81.11362262 -23.95910074 81.24122908 -25.4375 81.375 C-26.67306641 81.47941406 -26.67306641 81.47941406 -27.93359375 81.5859375 C-28.95646484 81.79089844 -28.95646484 81.79089844 -30 82 C-30.495 82.99 -30.495 82.99 -31 84 C-31.66 83.67 -32.32 83.34 -33 83 C-33 82.34 -33 81.68 -33 81 C-31.02 80.505 -31.02 80.505 -29 80 C-29.85745428 77.76666979 -29.85745428 77.76666979 -32 76 C-35.07110598 75.94010254 -37.99011728 76.41947755 -41 77 C-40.505 76.566875 -40.01 76.13375 -39.5 75.6875 C-37.66781808 74.00259517 -37.66781808 74.00259517 -38 71 C-36.02 71.33 -34.04 71.66 -32 72 C-31.34 70.68 -30.68 69.36 -30 68 C-27.69 68.33 -25.38 68.66 -23 69 C-23.495 68.566875 -23.99 68.13375 -24.5 67.6875 C-26 66 -26 66 -26 63 C-26.66 63 -27.32 63 -28 63 C-28.268125 62.401875 -28.53625 61.80375 -28.8125 61.1875 C-29.85839358 58.9953732 -29.85839358 58.9953732 -31.4375 57.625 C-33.59896451 55.37707691 -34.65895447 52.79870372 -36 50 C-36.66 49.01 -37.32 48.02 -38 47 C-38.56330649 45.53648123 -39.08172507 44.0551677 -39.5625 42.5625 C-39.93568359 41.41974609 -39.93568359 41.41974609 -40.31640625 40.25390625 C-42.40024458 33.3831936 -43.31989413 26.63978826 -40 20 C-39.67 19.0925 -39.34 18.185 -39 17.25 C-38 15 -38 15 -36 14 C-34.9935725 12.33720673 -33.99414593 10.67016516 -33 9 C-30.93532144 6.59120835 -30.11005341 6.03668447 -27 5 C-26.34 4.34 -25.68 3.68 -25 3 C-23.25 2 -23.25 2 -21 1 C-20.175 0.62875 -19.35 0.2575 -18.5 -0.125 C-12.5694719 -1.60763203 -5.842583 -1.94752767 0 0 Z M-22 69 C-21 71 -21 71 -21 71 Z M-21 71 C-22.98 71.66 -24.96 72.32 -27 73 C-26.34 74.32 -25.68 75.64 -25 77 C-23.02 76.67 -21.04 76.34 -19 76 C-18.67 75.01 -18.34 74.02 -18 73 C-18.66 73 -19.32 73 -20 73 C-20.33 72.34 -20.66 71.68 -21 71 Z M0 73 C0.66 74.32 1.32 75.64 2 77 C6.15654359 76.53816182 8.21466571 76.11990898 11 73 C9.54263913 72.80508548 8.08405407 72.61930642 6.625 72.4375 C5.40683594 72.28087891 5.40683594 72.28087891 4.1640625 72.12109375 C1.95100814 71.81762672 1.95100814 71.81762672 0 73 Z M-29 73 C-28 75 -28 75 -28 75 Z M-29 77 C-28.67 77.66 -28.34 78.32 -28 79 C-27.34 78.67 -26.68 78.34 -26 78 C-26.99 77.67 -27.98 77.34 -29 77 Z M-18 77 C-17.67 77.66 -17.34 78.32 -17 79 C-16.34 78.67 -15.68 78.34 -15 78 C-15.99 77.67 -16.98 77.34 -18 77 Z M-4 77 C-3.67 77.66 -3.34 78.32 -3 79 C-1.68 78.67 -0.36 78.34 1 78 C-0.65 77.67 -2.3 77.34 -4 77 Z " fill="#2257B8" transform="translate(72,10)"/>
<path d="M0 0 C2.33294775 -0.04241723 4.66702567 -0.04092937 7 0 C8 1 8 1 8.09765625 2.84765625 C8.06510417 4.8984375 8.03255208 6.94921875 8 9 C7.34 9 6.68 9 6 9 C5.67 7.35 5.34 5.7 5 4 C4.01 3.67 3.02 3.34 2 3 C2 4.11375 2 5.2275 2 6.375 C2 8.25 2 10.125 2 12 C2.31043992 13.38034893 2.64646577 14.75505487 3 16.125 C3.33 17.40375 3.66 18.6825 4 20 C4.99 17.36 5.98 14.72 7 12 C8.32 12 9.64 12 11 12 C10.814375 10.865625 10.62875 9.73125 10.4375 8.5625 C10.293125 7.386875 10.14875 6.21125 10 5 C11 4 11 4 13.4375 3.8125 C16 4 16 4 18 6 C18 7.65 18 9.3 18 11 C21.96 11.33 25.92 11.66 30 12 C29.34 13.32 28.68 14.64 28 16 C24.375 16.75 24.375 16.75 21 17 C20.690625 17.969375 20.38125 18.93875 20.0625 19.9375 C19 23 19 23 18 24 C16.31391034 24.07205511 14.62499341 24.08386068 12.9375 24.0625 C12.01839844 24.05347656 11.09929687 24.04445313 10.15234375 24.03515625 C9.44207031 24.02355469 8.73179688 24.01195313 8 24 C8 24.66 8 25.32 8 26 C9.0828125 26.309375 9.0828125 26.309375 10.1875 26.625 C14.34528718 28.65769595 16.91410244 31.82820488 19 36 C19.43245868 42.4868802 18.65867915 46.49537748 14.625 51.8125 C10.43688142 54.87304819 3.97942868 54.62352634 -1 54 C-5.91624028 51.63292134 -8.18602527 49.13959507 -10 44 C-10.85555575 38.33194314 -9.28898319 34.66799176 -6.4453125 29.890625 C-4.61081506 27.49090403 -2.95306138 26.59061228 0 26 C0 25.34 0 24.68 0 24 C-0.62648438 24.02320312 -1.25296875 24.04640625 -1.8984375 24.0703125 C-3.12433594 24.09738281 -3.12433594 24.09738281 -4.375 24.125 C-5.59316406 24.15980469 -5.59316406 24.15980469 -6.8359375 24.1953125 C-9 24 -9 24 -11 22 C-11.39764263 20.01178687 -11.73775349 18.01055661 -12 16 C-15.3 15.67 -18.6 15.34 -22 15 C-22 14.01 -22 13.02 -22 12 C-18.04 12 -14.08 12 -10 12 C-10 10.02 -10 8.04 -10 6 C-9.34 5.01 -8.68 4.02 -8 3 C-4.375 2.8125 -4.375 2.8125 -1 3 C-0.67 2.01 -0.34 1.02 0 0 Z " fill="#EBD193" transform="translate(59,21)"/>
<path d="M0 0 C0.33 0 0.66 0 1 0 C1 1.65 1 3.3 1 5 C4.3 5 7.6 5 11 5 C11.99 7.64 12.98 10.28 14 13 C16.97 13.33 19.94 13.66 23 14 C23 14.66 23 15.32 23 16 C22.39671875 16.24363281 21.7934375 16.48726562 21.171875 16.73828125 C17.26919667 19.00548467 15.69454095 22.94113906 14 27 C13.14873349 32.39135459 14.52449999 35.70475867 17.125 40.30078125 C18 42 18 42 18 44 C19.82718148 46.83200792 19.82718148 46.83200792 23 49 C26.37501413 49.42767355 29.61703725 49.29559869 33 49 C31.25 52 31.25 52 29 55 C25 55 25 55 23.44433594 53.83837891 C22.96254883 53.30647949 22.48076172 52.77458008 21.984375 52.2265625 C21.45585938 51.6490625 20.92734375 51.0715625 20.3828125 50.4765625 C19.84398438 49.86554688 19.30515625 49.25453125 18.75 48.625 C18.19570313 48.02171875 17.64140625 47.4184375 17.0703125 46.796875 C13 42.28544489 13 42.28544489 13 40 C12.21625 39.896875 11.4325 39.79375 10.625 39.6875 C8 39 8 39 6 36 C5.01 35.67 4.02 35.34 3 35 C1.93224776 33.03533587 0.93446535 31.03144641 0 29 C-0.66 28.01 -1.32 27.02 -2 26 C-3.72071711 21.69214837 -4.27185529 18.06535755 -4.25 13.4375 C-4.25515625 12.34308594 -4.2603125 11.24867187 -4.265625 10.12109375 C-3.90272448 5.85701265 -3.04151828 3.04151828 0 0 Z " fill="#1873DB" transform="translate(36,31)"/>
<path d="M0 0 C0 0.99 0 1.98 0 3 C-1.2065625 3.4021875 -1.2065625 3.4021875 -2.4375 3.8125 C-3.283125 4.204375 -4.12875 4.59625 -5 5 C-5.33 5.99 -5.66 6.98 -6 8 C-6.66 8.66 -7.32 9.32 -8 10 C-7.33613281 9.67773438 -6.67226563 9.35546875 -5.98828125 9.0234375 C-2.35619522 7.77950738 1.01582797 7.61656788 4.8125 7.625 C5.87827271 7.62632935 5.87827271 7.62632935 6.96557617 7.62768555 C13.47281968 7.77474611 17.71892497 9.09479992 22.63671875 13.44921875 C24 15 24 15 25 18 C26.64646685 19.68662458 28.31183067 21.35511706 30 23 C30 23.33 30 23.66 30 24 C26.37 24 22.74 24 19 24 C19.020625 23.030625 19.04125 22.06125 19.0625 21.0625 C19.35618499 18.12534105 19.35618499 18.12534105 18 17 C16.33382885 16.95936168 14.66611905 16.957279 13 17 C13 19.31 13 21.62 13 24 C11.68 24.33 10.36 24.66 9 25 C8.34 27.64 7.68 30.28 7 33 C5 32 5 32 4.1484375 29.71484375 C3.89320312 28.79832031 3.63796875 27.88179687 3.375 26.9375 C3.11460938 26.01839844 2.85421875 25.09929688 2.5859375 24.15234375 C2.39257812 23.44207031 2.19921875 22.73179688 2 22 C2.66 22 3.32 22 4 22 C4 19.69 4 17.38 4 15 C5.32 15.33 6.64 15.66 8 16 C8 17.65 8 19.3 8 21 C8.66 21 9.32 21 10 21 C9.505 17.04 9.505 17.04 9 13 C6.69 13 4.38 13 2 13 C1.67 13.66 1.34 14.32 1 15 C-1.31 15 -3.62 15 -6 15 C-6.66 17.97 -7.32 20.94 -8 24 C-12.66666667 24 -17.33333333 24 -22 24 C-24.4021604 28.8043208 -24.61122229 33.73103895 -25 39 C-25.66 38.67 -26.32 38.34 -27 38 C-27.05441656 36.10448978 -27.09298035 34.2085208 -27.125 32.3125 C-27.14820312 31.25675781 -27.17140625 30.20101562 -27.1953125 29.11328125 C-26.99662326 25.94617471 -26.32346712 23.85770864 -25 21 C-24.67 20.0925 -24.34 19.185 -24 18.25 C-23 16 -23 16 -21 15 C-19.9935725 13.33720673 -18.99414593 11.67016516 -18 10 C-15.93532144 7.59120835 -15.11005341 7.03668447 -12 6 C-11.34 5.34 -10.68 4.68 -10 4 C-6.82374386 2.18499649 -3.47733574 1.10642501 0 0 Z " fill="#343C55" transform="translate(57,9)"/>
<path d="M0 0 C0.66 0.66 1.32 1.32 2 2 C-0.64 2 -3.28 2 -6 2 C-5.36020151 4.03241727 -5.36020151 4.03241727 -4 6 C-1.44480079 6.81171228 -1.44480079 6.81171228 1 7 C1 7.66 1 8.32 1 9 C-0.32 9 -1.64 9 -3 9 C0.26545761 10.88391785 3.28111761 11.49287967 7 12 C7.33 10.68 7.66 9.36 8 8 C9.09855335 13.7923722 9.37714823 16.87605095 6 22 C3.21954494 25.21490116 1.26976671 26.73627472 -3.05078125 27.23828125 C-8.54775239 27.41866545 -11.7545588 26.84111347 -16 23 C-18.91803293 18.6229506 -19.64048309 15.21536229 -19 10 C-17.62712495 6.4201914 -15.72657977 3.66246979 -12.875 1.0625 C-8.66536697 -0.49323395 -4.44122067 -0.6052637 0 0 Z " fill="#BD251D" transform="translate(68,48)"/>
<path d="M0 0 C0.99 0.66 1.98 1.32 3 2 C2.67 2.33 2.34 2.66 2 3 C5.51033129 4.68630119 5.51033129 4.68630119 9.3125 4.625 C9.869375 4.41875 10.42625 4.2125 11 4 C10.67 4.99 10.34 5.98 10 7 C10.99 7.99 11.98 8.98 13 10 C11.7625 9.79375 10.525 9.5875 9.25 9.375 C5.88090165 8.93892876 3.87158079 8.96596361 1 11 C1 11.66 1 12.32 1 13 C2.32 13.33 3.64 13.66 5 14 C5 14.66 5 15.32 5 16 C2.4562544 15.49125088 -0.05585973 14.98501324 -2.5625 14.3125 C-5.41454069 13.94685376 -6.60457263 14.49176795 -9 16 C-8.34 16.33 -7.68 16.66 -7 17 C-7 17.99 -7 18.98 -7 20 C-7.64066406 19.9278125 -8.28132813 19.855625 -8.94140625 19.78125 C-18.81301703 18.23344955 -18.81301703 18.23344955 -28 21 C-28.66 20.01 -29.32 19.02 -30 18 C-29.34 18 -28.68 18 -28 18 C-28.66 16.68 -29.32 15.36 -30 14 C-31.4800841 14.11362262 -32.95910074 14.24122908 -34.4375 14.375 C-35.26121094 14.44460937 -36.08492187 14.51421875 -36.93359375 14.5859375 C-37.95646484 14.79089844 -37.95646484 14.79089844 -39 15 C-39.33 15.66 -39.66 16.32 -40 17 C-40.66 16.67 -41.32 16.34 -42 16 C-42 15.34 -42 14.68 -42 14 C-40.68 13.67 -39.36 13.34 -38 13 C-38.85745428 10.76666979 -38.85745428 10.76666979 -41 9 C-44.07110598 8.94010254 -46.99011728 9.41947755 -50 10 C-49.505 9.566875 -49.01 9.13375 -48.5 8.6875 C-46.66781808 7.00259517 -46.66781808 7.00259517 -47 4 C-44.03 4.495 -44.03 4.495 -41 5 C-40.34 3.68 -39.68 2.36 -39 1 C-36.36 1.33 -33.72 1.66 -31 2 C-30.67 2.99 -30.34 3.98 -30 5 C-31.98 5.33 -33.96 5.66 -36 6 C-34.36526484 9.12474627 -34.36526484 9.12474627 -31.875 9.6875 C-31.25625 9.790625 -30.6375 9.89375 -30 10 C-29.67 9.34 -29.34 8.68 -29 8 C-28.01 8 -27.02 8 -26 8 C-26 8.99 -26 9.98 -26 11 C-21.80679223 12.65777982 -19.3439463 13.19458523 -15 12 C-13.00102872 11.66055205 -11.00124361 11.32578384 -9 11 C-9.66 10.34 -10.32 9.68 -11 9 C-9.68 9 -8.36 9 -7 9 C-2.86249266 8.45375356 -2.86249266 8.45375356 1 7 C-1.64 6.34 -4.28 5.68 -7 5 C-6.67 4.01 -6.34 3.02 -6 2 C-3.125 0.6875 -3.125 0.6875 0 0 Z M-38 6 C-37 8 -37 8 -37 8 Z M-38 10 C-37.67 10.66 -37.34 11.32 -37 12 C-36.34 11.67 -35.68 11.34 -35 11 C-35.99 10.67 -36.98 10.34 -38 10 Z " fill="#5D7794" transform="translate(81,77)"/>
<path d="M0 0 C0.5775 0.639375 1.155 1.27875 1.75 1.9375 C3.7289841 4.13184938 3.7289841 4.13184938 5.859375 4.296875 C9.13038163 5.37129323 10.42207006 7.62613509 12.5 10.3125 C15.18238711 13.75275334 17.84577893 16.98198393 21 20 C24.16115776 18.63016497 24.9927092 18.0109362 27 15 C26.40832031 15.05800781 25.81664063 15.11601563 25.20703125 15.17578125 C18.69555208 15.54756228 18.69555208 15.54756228 15.0625 12.6875 C13.64407617 10.83925077 12.29233853 8.9385078 11 7 C11.680625 7.32355469 12.36125 7.64710937 13.0625 7.98046875 C16.51492457 9.17871717 19.35004633 9.30070058 23 9.3125 C24.19625 9.32925781 25.3925 9.34601563 26.625 9.36328125 C30.27604858 8.97028644 32.10158323 8.21004279 35 6 C35.66 5.01 36.32 4.02 37 3 C40.125 1.8125 40.125 1.8125 43 1 C43 1.99 43 2.98 43 4 C42.34 4 41.68 4 41 4 C40.34 5.65 39.68 7.3 39 9 C38.34 9 37.68 9 37 9 C37 9.99 37 10.98 37 12 C35.5625 13.5625 35.5625 13.5625 34 15 C33.67 15.66 33.34 16.32 33 17 C32.34 17 31.68 17 31 17 C30.34 18.32 29.68 19.64 29 21 C28.34 21 27.68 21 27 21 C27 21.66 27 22.32 27 23 C24 25 24 25 21.625 24.8125 C18.6955588 23.9057682 16.48598689 22.79543498 14 21 C13.67 20.01 13.34 19.02 13 18 C12.484375 17.484375 11.96875 16.96875 11.4375 16.4375 C10.963125 15.963125 10.48875 15.48875 10 15 C10 14.34 10 13.68 10 13 C9.34 13 8.68 13 8 13 C6.375 11.6875 6.375 11.6875 5 10 C5 9.01 5 8.02 5 7 C4.34 7 3.68 7 3 7 C2.71125 6.38125 2.4225 5.7625 2.125 5.125 C1.06279958 2.86674235 1.06279958 2.86674235 -1 1 C-0.67 0.67 -0.34 0.34 0 0 Z " fill="#112454" transform="translate(41,66)"/>
<path d="M0 0 C3.63 0.33 7.26 0.66 11 1 C11.99 3.64 12.98 6.28 14 9 C16.97 9.33 19.94 9.66 23 10 C23 10.66 23 11.32 23 12 C21.3603125 12.8353125 21.3603125 12.8353125 19.6875 13.6875 C16.2642111 15.67923172 14.51006919 17.22482702 13 21 C12.49104104 23.99328336 12.19138415 26.9708509 12 30 C7.82686972 27.55368225 6.59758592 24.34986264 5 20 C4.65710937 19.14664063 4.31421875 18.29328125 3.9609375 17.4140625 C1.66922892 11.52816349 0.4133315 6.30330538 0 0 Z " fill="#192449" transform="translate(36,35)"/>
<path d="M0 0 C0.66 0 1.32 0 2 0 C2.05422947 1.4370809 2.09289723 2.87475462 2.125 4.3125 C2.14820312 5.11300781 2.17140625 5.91351563 2.1953125 6.73828125 C2 9 2 9 0 12 C-0.67088897 13.42597859 -1.31490668 14.864783 -1.9375 16.3125 C-6.48675115 26.6578341 -6.48675115 26.6578341 -10 29 C-10.08636719 28.41992188 -10.17273438 27.83984375 -10.26171875 27.2421875 C-11.31181017 21.40406457 -12.73838045 18.16015242 -17 14 C-19.14980497 12.62745412 -19.14980497 12.62745412 -21 12 C-21 11.34 -21 10.68 -21 10 C-17.7 9.67 -14.4 9.34 -11 9 C-10.649375 7.865625 -10.29875 6.73125 -9.9375 5.5625 C-9.12890625 3.62109375 -9.12890625 3.62109375 -8 2 C-4.375 1.125 -4.375 1.125 -1 1 C-0.67 0.67 -0.34 0.34 0 0 Z " fill="#17244D" transform="translate(88,35)"/>
<path d="M0 0 C0.66 0.66 1.32 1.32 2 2 C-0.64 2 -3.28 2 -6 2 C-5.36020151 4.03241727 -5.36020151 4.03241727 -4 6 C-1.44480079 6.81171228 -1.44480079 6.81171228 1 7 C1 7.66 1 8.32 1 9 C-0.32 9 -1.64 9 -3 9 C0.26545761 10.88391785 3.28111761 11.49287967 7 12 C7.33 10.68 7.66 9.36 8 8 C9.25 15.625 9.25 15.625 7 19 C6.34 17.35 5.68 15.7 5 14 C4.113125 14.165 3.22625 14.33 2.3125 14.5 C-11.90455272 16.54772364 -11.90455272 16.54772364 -17 14 C-16.96580189 5.04009434 -16.96580189 5.04009434 -13.5625 1.375 C-9.00798717 -0.38288215 -4.83538118 -0.74791867 0 0 Z " fill="#DC3A22" transform="translate(68,48)"/>
<path d="M0 0 C0 0.66 0 1.32 0 2 C1.65 2 3.3 2 5 2 C5 2.33 5 2.66 5 3 C2.03 3 -0.94 3 -4 3 C-3.21496094 3.3403125 -2.42992188 3.680625 -1.62109375 4.03125 C6.73391256 7.8858296 12.85652968 11.78111575 16.4375 20.5 C16.623125 21.325 16.80875 22.15 17 23 C12.53208751 21.51069584 9.82711045 18.6148347 7.6875 14.4375 C5.12048361 10.72958744 2.25774563 9.13172836 -2 8 C-9.34549587 7.40501483 -16.10442029 7.13398641 -23 10 C-23.99 9.67 -24.98 9.34 -26 9 C-25.195625 8.7525 -24.39125 8.505 -23.5625 8.25 C-22.716875 7.8375 -21.87125 7.425 -21 7 C-20.855625 6.360625 -20.71125 5.72125 -20.5625 5.0625 C-20 3 -20 3 -17.5 1.3125 C-11.76348402 -0.83869349 -5.9813739 -1.73652791 0 0 Z " fill="#1A3C7C" transform="translate(72,10)"/>
<path d="M0 0 C2.64 0 5.28 0 8 0 C8.33 0.99 8.66 1.98 9 3 C9.62648438 2.97679687 10.25296875 2.95359375 10.8984375 2.9296875 C11.71570313 2.91164063 12.53296875 2.89359375 13.375 2.875 C14.18710938 2.85179687 14.99921875 2.82859375 15.8359375 2.8046875 C18 3 18 3 20 5 C20.39764263 6.98821313 20.73775349 8.98944339 21 11 C22.98 11 24.96 11 27 11 C27.33 11.66 27.66 12.32 28 13 C24.37 13 20.74 13 17 13 C17.020625 12.030625 17.04125 11.06125 17.0625 10.0625 C17.35618499 7.12534105 17.35618499 7.12534105 16 6 C14.33382885 5.95936168 12.66611905 5.957279 11 6 C11 8.31 11 10.62 11 13 C9.68 13.33 8.36 13.66 7 14 C6.34 16.64 5.68 19.28 5 22 C3 21 3 21 2.1484375 18.71484375 C1.89320312 17.79832031 1.63796875 16.88179687 1.375 15.9375 C1.11460938 15.01839844 0.85421875 14.09929688 0.5859375 13.15234375 C0.39257812 12.44207031 0.19921875 11.73179688 0 11 C0.66 11 1.32 11 2 11 C2 8.69 2 6.38 2 4 C3.32 4.33 4.64 4.66 6 5 C6 6.65 6 8.3 6 10 C6.66 10 7.32 10 8 10 C7.67 7.36 7.34 4.72 7 2 C4.69 1.67 2.38 1.34 0 1 C0 0.67 0 0.34 0 0 Z " fill="#8E3A30" transform="translate(59,20)"/>
<path d="M0 0 C2.3352479 2.06772547 2.97849601 2.93548802 4 6 C5.29355827 7.37195574 6.62298702 8.71182656 8 10 C6.02 10 4.04 10 2 10 C1.505 8.3603125 1.505 8.3603125 1 6.6875 C-0.019436 4.23293565 -0.58634813 3.22593034 -2.9453125 1.9375 C-4.36796078 1.44798661 -5.80637667 1.00155655 -7.2578125 0.60546875 C-9 0 -9 0 -10 -2 C-12.58605332 -2.4683265 -12.58605332 -2.4683265 -15.5625 -2.625 C-17.08037109 -2.73714844 -17.08037109 -2.73714844 -18.62890625 -2.8515625 C-19.80259766 -2.92503906 -19.80259766 -2.92503906 -21 -3 C-21 -2.34 -21 -1.68 -21 -1 C-22.32 -1 -23.64 -1 -25 -1 C-25 -0.34 -25 0.32 -25 1 C-27.64 1.33 -30.28 1.66 -33 2 C-33 3.98 -33 5.96 -33 8 C-34.65 8 -36.3 8 -38 8 C-38 8.66 -38 9.32 -38 10 C-38.66 10 -39.32 10 -40 10 C-38.71587017 4.98021976 -37.08808976 2.21828343 -33 -1 C-23.45698079 -6.27821859 -8.92856557 -6.12744696 0 0 Z " fill="#1A2356" transform="translate(78,21)"/>
<path d="M0 0 C3.63 0 7.26 0 11 0 C11.33 0.99 11.66 1.98 12 3 C13.98 3.33 15.96 3.66 18 4 C18 4.33 18 4.66 18 5 C15.69 5 13.38 5 11 5 C10.67 4.34 10.34 3.68 10 3 C8.10466658 2.53476937 8.10466658 2.53476937 5.9375 2.375 C4.638125 2.25125 3.33875 2.1275 2 2 C1.67 3.32 1.34 4.64 1 6 C-1.31 6 -3.62 6 -6 6 C-6.66 8.97 -7.32 11.94 -8 15 C-11.96 15 -15.92 15 -20 15 C-19.01 14.67 -18.02 14.34 -17 14 C-17 13.01 -17 12.02 -17 11 C-15.35 11 -13.7 11 -12 11 C-12 9.02 -12 7.04 -12 5 C-9.36 4.67 -6.72 4.34 -4 4 C-4 3.34 -4 2.68 -4 2 C-2.68 2 -1.36 2 0 2 C0 1.34 0 0.68 0 0 Z " fill="#4B2744" transform="translate(57,18)"/>
<path d="M0 0 C5.39369931 -0.18925261 9.93758456 -0.14179115 15 2 C17.94530606 5.17186806 19.2410469 7.7271451 19.4375 12 C19.18337567 16.74667937 17.49523235 20.33863072 14.3125 23.875 C13.6628125 24.431875 13.6628125 24.431875 13 25 C12.34 24.67 11.68 24.34 11 24 C12.2065625 22.7625 12.2065625 22.7625 13.4375 21.5 C16.55500586 17.81887726 16.75501064 14.73646089 17 10 C16.67 10.33 16.34 10.66 16 11 C11.33521915 11.42407099 8.81535994 10.69319525 5 8 C5.66 7.67 6.32 7.34 7 7 C7.99 7.33 8.98 7.66 10 8 C10 7.34 10 6.68 10 6 C9.21625 5.896875 8.4325 5.79375 7.625 5.6875 C5 5 5 5 3 2 C2.01 1.34 1.02 0.68 0 0 Z " fill="#BB7B6C" transform="translate(59,49)"/>
<path d="M0 0 C2.625 0.375 2.625 0.375 5 1 C5.33 2.32 5.66 3.64 6 5 C5.34 5 4.68 5 4 5 C4 4.01 4 3.02 4 2 C3.01 2 2.02 2 1 2 C2.52555966 6.81122847 2.52555966 6.81122847 6 10 C6.33 9.34 6.66 8.68 7 8 C8 11 8 11 6.875 14.125 C5 17 5 17 2.4375 18 C1.633125 18 0.82875 18 0 18 C-0.66 17.34 -1.32 16.68 -2 16 C-2 15.01 -2 14.02 -2 13 C-1.01 12.67 -0.02 12.34 1 12 C-1.83269666 10.58365167 -4.47466438 10.6536995 -7.625 10.4375 C-8.81351563 10.35371094 -10.00203125 10.26992188 -11.2265625 10.18359375 C-12.14179687 10.12300781 -13.05703125 10.06242187 -14 10 C-14 9.34 -14 8.68 -14 8 C-10.04 8 -6.08 8 -2 8 C-2 6.02 -2 4.04 -2 2 C-1.34 1.34 -0.68 0.68 0 0 Z " fill="#ECD699" transform="translate(51,25)"/>
<path d="M0 0 C2.64 0.33 5.28 0.66 8 1 C8.33 1.99 8.66 2.98 9 4 C7.02 4.33 5.04 4.66 3 5 C4.63473516 8.12474627 4.63473516 8.12474627 7.125 8.6875 C7.74375 8.790625 8.3625 8.89375 9 9 C9.33 8.34 9.66 7.68 10 7 C10.99 7 11.98 7 13 7 C12 10 12 10 9.78515625 11.16796875 C8.88667969 11.50441406 7.98820312 11.84085938 7.0625 12.1875 C6.16660156 12.53167969 5.27070312 12.87585938 4.34765625 13.23046875 C2 14 2 14 0 14 C-0.33 14.66 -0.66 15.32 -1 16 C-1.66 15.67 -2.32 15.34 -3 15 C-3 14.34 -3 13.68 -3 13 C-1.68 12.67 -0.36 12.34 1 12 C0.14254572 9.76666979 0.14254572 9.76666979 -2 8 C-5.07110598 7.94010254 -7.99011728 8.41947755 -11 9 C-10.505 8.566875 -10.01 8.13375 -9.5 7.6875 C-7.66781808 6.00259517 -7.66781808 6.00259517 -8 3 C-5.03 3.495 -5.03 3.495 -2 4 C-1.34 2.68 -0.68 1.36 0 0 Z M1 5 C2 7 2 7 2 7 Z M1 9 C1.33 9.66 1.66 10.32 2 11 C2.66 10.67 3.32 10.34 4 10 C3.01 9.67 2.02 9.34 1 9 Z " fill="#879BB6" transform="translate(42,78)"/>
<path d="M0 0 C0.33 0.99 0.66 1.98 1 3 C0.34 3 -0.32 3 -1 3 C-1.268125 3.61875 -1.53625 4.2375 -1.8125 4.875 C-3 7 -3 7 -6 9 C-6.99 9 -7.98 9 -9 9 C-9 9.99 -9 10.98 -9 12 C-11.5 14.1875 -11.5 14.1875 -14 16 C-14.66 15.67 -15.32 15.34 -16 15 C-15.67 14.67 -15.34 14.34 -15 14 C-15.59167969 14.05800781 -16.18335937 14.11601563 -16.79296875 14.17578125 C-23.30444792 14.54756228 -23.30444792 14.54756228 -26.9375 11.6875 C-28.35592383 9.83925077 -29.70766147 7.9385078 -31 6 C-30.319375 6.32355469 -29.63875 6.64710937 -28.9375 6.98046875 C-25.48507543 8.17871717 -22.64995367 8.30070058 -19 8.3125 C-17.80375 8.32925781 -16.6075 8.34601563 -15.375 8.36328125 C-11.72395142 7.97028644 -9.89841677 7.21004279 -7 5 C-6.34 4.01 -5.68 3.02 -5 2 C-2.375 0.8125 -2.375 0.8125 0 0 Z " fill="#1F468A" transform="translate(83,67)"/>
<path d="M0 0 C0.66 0.33 1.32 0.66 2 1 C1.01 2.5159375 1.01 2.5159375 0 4.0625 C-2.15446336 7.89436698 -2.62299399 10.56116785 -2 15 C-1.07708448 17.18794627 -0.04415529 19.23446165 1.125 21.30078125 C2 23 2 23 2 25 C3.82718148 27.83200792 3.82718148 27.83200792 7 30 C10.37501413 30.42767355 13.61703725 30.29559869 17 30 C15.25 33 15.25 33 13 36 C9 36 9 36 6.0546875 33.4375 C4.98334822 32.30235888 3.92381071 31.15598845 2.875 30 C2.33746094 29.44699219 1.79992188 28.89398438 1.24609375 28.32421875 C-3.2311272 23.46738306 -4.8088556 19.14146201 -5.1171875 12.4609375 C-4.51245865 7.2524664 -3.27287306 4.11748546 0 0 Z " fill="#1E65C1" transform="translate(52,50)"/>
<path d="M0 0 C0.33 0 0.66 0 1 0 C1 1.98 1 3.96 1 6 C1.66 6 2.32 6 3 6 C3.165 6.61875 3.33 7.2375 3.5 7.875 C5.48133953 10.68189767 7.55675361 11.02179482 10.8359375 11.68359375 C13.98072851 12.14339171 16.83302351 12.31048789 20 12 C21.7511573 10.5833253 21.7511573 10.5833253 23 9 C23.99 9 24.98 9 26 9 C24.70989008 11.87793751 23.42638194 13.96183917 21 16 C15.59884639 17.80038454 10.7828918 17.85842938 5.625 15.375 C2.65656939 12.68927706 1.3311864 10.7716948 0 7 C-0.1875 3.125 -0.1875 3.125 0 0 Z " fill="#8C293F" transform="translate(49,58)"/>
<path d="M0 0 C0 4.09059524 -1.59232319 5.01876171 -4.375 7.9375 C-7.12448412 10.83100472 -9.43845696 13.30206016 -11 17 C-12.50539661 16.05016642 -14.00420347 15.08988109 -15.5 14.125 C-16.3353125 13.59132813 -17.170625 13.05765625 -18.03125 12.5078125 C-18.6809375 12.01023437 -19.330625 11.51265625 -20 11 C-20 10.34 -20 9.68 -20 9 C-16.7 8.67 -13.4 8.34 -10 8 C-9.649375 6.865625 -9.29875 5.73125 -8.9375 4.5625 C-8.1328125 2.625 -8.1328125 2.625 -7 1 C-3.3125 0.0625 -3.3125 0.0625 0 0 Z " fill="#382844" transform="translate(87,36)"/>
<path d="M0 0 C2.33294775 -0.04241723 4.66702567 -0.04092937 7 0 C8 1 8 1 8.09765625 2.84765625 C8.06510417 4.8984375 8.03255208 6.94921875 8 9 C7.34 9 6.68 9 6 9 C5.67 7.35 5.34 5.7 5 4 C4.01 3.67 3.02 3.34 2 3 C2.12375 4.60875 2.12375 4.60875 2.25 6.25 C2 10 2 10 0 12.4375 C-0.99 13.2109375 -0.99 13.2109375 -2 14 C-5 13 -5 13 -7 10 C-7 8.68 -7 7.36 -7 6 C-6.01 6 -5.02 6 -4 6 C-4 6.99 -4 7.98 -4 9 C-3.34 9 -2.68 9 -2 9 C-3.04874998 6.37812506 -3.64931313 5.20628639 -6.125 3.75 C-7.053125 3.37875 -7.053125 3.37875 -8 3 C-5.69 3 -3.38 3 -1 3 C-0.67 2.01 -0.34 1.02 0 0 Z " fill="#C25D29" transform="translate(59,21)"/>
<path d="M0 0 C3.78548422 0.81771034 6.38808362 2.40351831 9.5859375 4.55859375 C9.5859375 5.21859375 9.5859375 5.87859375 9.5859375 6.55859375 C10.2459375 6.55859375 10.9059375 6.55859375 11.5859375 6.55859375 C12.2459375 9.19859375 12.9059375 11.83859375 13.5859375 14.55859375 C12.5959375 14.55859375 11.6059375 14.55859375 10.5859375 14.55859375 C9.26171875 13.16796875 9.26171875 13.16796875 7.8984375 11.30859375 C3.08212213 5.40741526 -3.21135631 3.3592703 -10.4140625 1.55859375 C-6.52613903 -1.03335523 -4.49326978 -0.53365814 0 0 Z " fill="#6A8EBE" transform="translate(75.4140625,12.44140625)"/>
<path d="M0 0 C0.66 0.66 1.32 1.32 2 2 C-0.64 2 -3.28 2 -6 2 C-5.36020151 4.03241727 -5.36020151 4.03241727 -4 6 C-1.44480079 6.81171228 -1.44480079 6.81171228 1 7 C1 7.66 1 8.32 1 9 C-4.9146029 10.59854133 -10.15284453 9.25890714 -16 8 C-15.2421875 3.2265625 -15.2421875 3.2265625 -13.0625 1.1875 C-8.76808313 -0.47768205 -4.55967961 -0.62140766 0 0 Z " fill="#E36633" transform="translate(68,48)"/>
<path d="M0 0 C1.65 0.33 3.3 0.66 5 1 C5.33 2.65 5.66 4.3 6 6 C5.01 6 4.02 6 3 6 C3 5.01 3 4.02 3 3 C2.34 3 1.68 3 1 3 C1.33 4.32 1.66 5.64 2 7 C3.65 7 5.3 7 7 7 C7.66 5.02 8.32 3.04 9 1 C12.3 1 15.6 1 19 1 C19 1.33 19 1.66 19 2 C16.69 2.33 14.38 2.66 12 3 C11.690625 3.969375 11.38125 4.93875 11.0625 5.9375 C10 9 10 9 9 10 C7.31391034 10.07205511 5.62499341 10.08386068 3.9375 10.0625 C3.01839844 10.05347656 2.09929687 10.04445313 1.15234375 10.03515625 C0.44207031 10.02355469 -0.26820312 10.01195312 -1 10 C-1.33 10.66 -1.66 11.32 -2 12 C-3.6442351 7.06729471 -2.18615592 4.45975807 0 0 Z " fill="#9E3D25" transform="translate(68,35)"/>
<path d="M0 0 C0.7940625 0.10957031 1.588125 0.21914062 2.40625 0.33203125 C5.93792468 0.89784533 9.22860424 1.55536808 12.625 2.6875 C12.295 3.3475 11.965 4.0075 11.625 4.6875 C10.635 4.6875 9.645 4.6875 8.625 4.6875 C8.625 5.6775 8.625 6.6675 8.625 7.6875 C7.01625 7.625625 7.01625 7.625625 5.375 7.5625 C1.96752515 7.6760825 0.41760369 7.90023364 -2.375 9.6875 C-3.035 8.6975 -3.695 7.7075 -4.375 6.6875 C-3.715 6.6875 -3.055 6.6875 -2.375 6.6875 C-3.16617904 4.68766466 -3.16617904 4.68766466 -4.375 2.6875 C-5.365 2.3575 -6.355 2.0275 -7.375 1.6875 C-4.0918304 -0.50127974 -3.66728597 -0.51942788 0 0 Z " fill="#4471A5" transform="translate(55.375,88.3125)"/>
<path d="M0 0 C0.74829479 2.71941278 1.12869403 5.25289443 1.3125 8.0625 C2.00467424 14.79445272 4.24681037 21.37021556 8 27 C7.67 27.99 7.34 28.98 7 30 C2.79515783 24.24385683 -0.14086809 18.89835786 -2 12 C-2.33 14.64 -2.66 17.28 -3 20 C-3.33 20 -3.66 20 -4 20 C-4.054348 17.9377952 -4.09294961 15.87517184 -4.125 13.8125 C-4.14820312 12.66394531 -4.17140625 11.51539063 -4.1953125 10.33203125 C-3.93738682 5.93181909 -3.13095049 3.13095049 0 0 Z " fill="#324775" transform="translate(36,31)"/>
<path d="M0 0 C0.99 0.66 1.98 1.32 3 2 C2.67 2.33 2.34 2.66 2 3 C5.51033129 4.68630119 5.51033129 4.68630119 9.3125 4.625 C9.869375 4.41875 10.42625 4.2125 11 4 C10.67 4.99 10.34 5.98 10 7 C10.99 7.99 11.98 8.98 13 10 C11.865625 9.773125 10.73125 9.54625 9.5625 9.3125 C4.54551402 8.64835517 0.60279392 10.11413305 -4 12 C-4.33 11.34 -4.66 10.68 -5 10 C-3.02 9.01 -1.04 8.02 1 7 C-1.64 6.34 -4.28 5.68 -7 5 C-6.67 4.01 -6.34 3.02 -6 2 C-3.125 0.6875 -3.125 0.6875 0 0 Z " fill="#808FA4" transform="translate(81,77)"/>
<path d="M0 0 C2.10388569 -0.05402274 4.20816714 -0.09280256 6.3125 -0.125 C8.07013672 -0.15980469 8.07013672 -0.15980469 9.86328125 -0.1953125 C13 0 13 0 16 2 C15.67 2.66 15.34 3.32 15 4 C14.01 3.67 13.02 3.34 12 3 C12.66 4.32 13.32 5.64 14 7 C16.45224694 6.89386164 16.45224694 6.89386164 19 6 C20.37466625 3.52363988 20.37466625 3.52363988 21 1 C21.66 1.33 22.32 1.66 23 2 C23.6328125 4.06640625 23.6328125 4.06640625 24.125 6.5625 C24.29257812 7.38878906 24.46015625 8.21507812 24.6328125 9.06640625 C24.75398438 9.70449219 24.87515625 10.34257813 25 11 C23.04098546 10.88617347 21.0827662 10.75858875 19.125 10.625 C18.03445312 10.55539063 16.94390625 10.48578125 15.8203125 10.4140625 C13 10 13 10 11 8 C10.60235737 6.01178687 10.26224651 4.01055661 10 2 C6.7 1.67 3.4 1.34 0 1 C0 0.67 0 0.34 0 0 Z " fill="#B54925" transform="translate(37,35)"/>
<path d="M0 0 C0.99 0 1.98 0 3 0 C3.33 0.66 3.66 1.32 4 2 C4.66 1.34 5.32 0.68 6 0 C6 1.65 6 3.3 6 5 C9.96 5.33 13.92 5.66 18 6 C17.67 6.99 17.34 7.98 17 9 C13.37 9 9.74 9 6 9 C5.67 9.66 5.34 10.32 5 11 C4.15841464 9.73461631 3.32700252 8.46246221 2.5 7.1875 C1.80390625 6.12595703 1.80390625 6.12595703 1.09375 5.04296875 C0 3 0 3 0 0 Z " fill="#DD9967" transform="translate(71,27)"/>
<path d="M0 0 C0 0.66 0 1.32 0 2 C1.65 2 3.3 2 5 2 C5 2.33 5 2.66 5 3 C3.865625 2.938125 2.73125 2.87625 1.5625 2.8125 C-6.05175466 2.7757753 -13.55381178 4.56376622 -21 6 C-20 3 -20 3 -17.5 1.375 C-11.78797231 -0.86901088 -5.98733859 -1.73825959 0 0 Z " fill="#354A71" transform="translate(72,10)"/>
<path d="M0 0 C2.64 0 5.28 0 8 0 C8.33 0.99 8.66 1.98 9 3 C9.62648438 2.97679687 10.25296875 2.95359375 10.8984375 2.9296875 C11.71570313 2.91164063 12.53296875 2.89359375 13.375 2.875 C14.18710938 2.85179687 14.99921875 2.82859375 15.8359375 2.8046875 C18 3 18 3 20 5 C20.39764263 6.98821313 20.73775349 8.98944339 21 11 C22.98 11 24.96 11 27 11 C27.33 11.66 27.66 12.32 28 13 C24.37 13 20.74 13 17 13 C17.020625 12.030625 17.04125 11.06125 17.0625 10.0625 C17.35618499 7.12534105 17.35618499 7.12534105 16 6 C14.865625 5.87625 13.73125 5.7525 12.5625 5.625 C11.386875 5.41875 10.21125 5.2125 9 5 C8.34 4.01 7.68 3.02 7 2 C3.43230448 1.26393501 3.43230448 1.26393501 0 1 C0 0.67 0 0.34 0 0 Z " fill="#943D37" transform="translate(59,20)"/>
<path d="M0 0 C0.99 0.33 1.98 0.66 3 1 C3.73046875 2.84765625 3.73046875 2.84765625 4.1875 5.0625 C4.34605469 5.79597656 4.50460938 6.52945313 4.66796875 7.28515625 C4.77753906 7.85105469 4.88710938 8.41695312 5 9 C5.66 9 6.32 9 7 9 C7.061875 10.1446875 7.061875 10.1446875 7.125 11.3125 C7.77823609 14.32405113 7.77823609 14.32405113 11.0625 15.8125 C12.031875 16.204375 13.00125 16.59625 14 17 C13.34 17.33 12.68 17.66 12 18 C11.34 17.67 10.68 17.34 10 17 C8.37731009 16.90388248 6.75052694 16.87017648 5.125 16.875 C4.26132812 16.87242188 3.39765625 16.86984375 2.5078125 16.8671875 C0.19334029 16.98976079 -1.78289116 17.35033555 -4 18 C-1.85927699 15.64520469 0.1394109 14.35937085 3 13 C2.7834375 12.31292969 2.566875 11.62585937 2.34375 10.91796875 C2.0653125 10.01691406 1.786875 9.11585937 1.5 8.1875 C1.08234375 6.84751953 1.08234375 6.84751953 0.65625 5.48046875 C0 3 0 3 0 0 Z " fill="#DFC6A1" transform="translate(58,32)"/>
<path d="M0 0 C2.31 0 4.62 0 7 0 C7.66 1.65 8.32 3.3 9 5 C7.35 5.33 5.7 5.66 4 6 C3.67 6.99 3.34 7.98 3 9 C1.02 9 -0.96 9 -3 9 C-2.67 8.01 -2.34 7.02 -2 6 C-1.34 6 -0.68 6 0 6 C0 4.02 0 2.04 0 0 Z " fill="#C7291A" transform="translate(66,62)"/>
<path d="M0 0 C8.66725664 -0.44070796 8.66725664 -0.44070796 13 3 C15 6 15 6 15 9 C13.35 8.67 11.7 8.34 10 8 C10 7.34 10 6.68 10 6 C9.21625 5.896875 8.4325 5.79375 7.625 5.6875 C5 5 5 5 3 2 C2.01 1.34 1.02 0.68 0 0 Z " fill="#EAB28E" transform="translate(59,49)"/>
<path d="M0 0 C2.125 0.375 2.125 0.375 4 1 C3.34 1 2.68 1 2 1 C2 1.99 2 2.98 2 4 C0.5625 5.5625 0.5625 5.5625 -1 7 C-1.33 7.66 -1.66 8.32 -2 9 C-2.66 9 -3.32 9 -4 9 C-4.66 10.32 -5.32 11.64 -6 13 C-6.66 13 -7.32 13 -8 13 C-8 13.66 -8 14.32 -8 15 C-9.32 15.33 -10.64 15.66 -12 16 C-10.68326091 10.33802191 -8.59410737 8.25415939 -4 5 C-3.34 5 -2.68 5 -2 5 C-2 4.01 -2 3.02 -2 2 C-1.34 1.34 -0.68 0.68 0 0 Z " fill="#0F1C48" transform="translate(76,74)"/>
<path d="M0 0 C0.4125 0.474375 0.825 0.94875 1.25 1.4375 C3.182185 3.16266518 4.48192275 3.56584875 7 4 C7.33 3.34 7.66 2.68 8 2 C8.99 2 9.98 2 11 2 C10 5 10 5 7.78515625 6.16796875 C6.88667969 6.50441406 5.98820312 6.84085937 5.0625 7.1875 C4.16660156 7.53167969 3.27070312 7.87585938 2.34765625 8.23046875 C0 9 0 9 -2 9 C-2.33 9.66 -2.66 10.32 -3 11 C-3.66 10.67 -4.32 10.34 -5 10 C-5 9.34 -5 8.68 -5 8 C-3.68 7.67 -2.36 7.34 -1 7 C-1.99 5.35 -2.98 3.7 -4 2 C-2.68 2 -1.36 2 0 2 C0 1.34 0 0.68 0 0 Z M-1 4 C-0.67 4.66 -0.34 5.32 0 6 C0.66 5.67 1.32 5.34 2 5 C1.01 4.67 0.02 4.34 -1 4 Z " fill="#6C7CA0" transform="translate(44,83)"/>
<path d="M0 0 C0.5775 0.639375 1.155 1.27875 1.75 1.9375 C3.74301265 4.12558557 3.74301265 4.12558557 5.9375 4.375 C8.76243889 5.23104209 9.58083237 6.67255544 11.25 9.0625 C11.77078125 9.79597656 12.2915625 10.52945313 12.828125 11.28515625 C13.21484375 11.85105469 13.6015625 12.41695312 14 13 C12.171875 13.609375 12.171875 13.609375 10 14 C7.25 12.25 7.25 12.25 5 10 C5 9.01 5 8.02 5 7 C4.34 7 3.68 7 3 7 C2.71125 6.38125 2.4225 5.7625 2.125 5.125 C1.06279958 2.86674235 1.06279958 2.86674235 -1 1 C-0.67 0.67 -0.34 0.34 0 0 Z " fill="#143D80" transform="translate(41,66)"/>
<path d="M0 0 C0 0.99 0 1.98 0 3 C-3.33333333 6 -3.33333333 6 -6 6 C-6.226875 6.7425 -6.45375 7.485 -6.6875 8.25 C-8.26067719 11.54618078 -10.1126587 12.81688828 -13 15 C-14.76323505 17.12603185 -14.76323505 17.12603185 -16 19 C-16.66 18.67 -17.32 18.34 -18 18 C-16.25 14.125 -16.25 14.125 -14 13 C-12.9935725 11.33720673 -11.99414593 9.67016516 -11 8 C-8.93532144 5.59120835 -8.11005341 5.03668447 -5 4 C-4.34 3.34 -3.68 2.68 -3 2 C-2.01 1.34 -1.02 0.68 0 0 Z " fill="#252330" transform="translate(50,11)"/>
<path d="M0 0 C2.97 0 5.94 0 9 0 C9.99 2.64 10.98 5.28 12 8 C14.97 8.33 17.94 8.66 21 9 C21 9.66 21 10.32 21 11 C17.16652698 12.27782434 14.91272241 11.96101954 11 11 C8.19567691 8.41139407 7.08968579 7.00896512 6.75 3.1875 C6.8325 2.465625 6.915 1.74375 7 1 C4.69 1 2.38 1 0 1 C0 0.67 0 0.34 0 0 Z " fill="#622E3F" transform="translate(38,36)"/>
<path d="M0 0 C0.33 0 0.66 0 1 0 C1.268125 0.886875 1.53625 1.77375 1.8125 2.6875 C2.8666068 6.0011806 2.8666068 6.0011806 4.6875 8.6875 C5.120625 9.450625 5.55375 10.21375 6 11 C5.67 11.99 5.34 12.98 5 14 C4.01 13.67 3.02 13.34 2 13 C2.33 12.01 2.66 11.02 3 10 C0.16730334 8.58365167 -2.47466438 8.6536995 -5.625 8.4375 C-6.81351563 8.35371094 -8.00203125 8.26992188 -9.2265625 8.18359375 C-10.14179687 8.12300781 -11.05703125 8.06242187 -12 8 C-12 7.34 -12 6.68 -12 6 C-8.04 6 -4.08 6 0 6 C0 4.02 0 2.04 0 0 Z " fill="#E1A76C" transform="translate(49,27)"/>
<path d="M0 0 C0.33 0 0.66 0 1 0 C0.51136364 6.35227273 0.51136364 6.35227273 -1.875 9.375 C-5.73972954 12.33038142 -9.27552261 12.19094403 -14 12.25 C-15.2375 12.27578125 -16.475 12.3015625 -17.75 12.328125 C-21 12 -21 12 -22.9375 10.484375 C-23.4634375 9.74960938 -23.4634375 9.74960938 -24 9 C-23.43023437 9.16113281 -22.86046875 9.32226562 -22.2734375 9.48828125 C-16.49098004 10.78983095 -10.37973204 10.56177716 -5 8 C-2.75737256 5.59718489 -1.37922254 2.97063317 0 0 Z " fill="#4E4F81" transform="translate(78,64)"/>
<path d="M0 0 C0.99 0.495 0.99 0.495 2 1 C2 1.99 2 2.98 2 4 C2.66 4.33 3.32 4.66 4 5 C6.27005139 8.40507709 6.18320175 9.21478421 5.75 13.125 C5.61851563 14.45917969 5.61851563 14.45917969 5.484375 15.8203125 C5.32453125 16.53960937 5.1646875 17.25890625 5 18 C4.34 18.33 3.68 18.66 3 19 C2.46877637 17.23225581 1.95035927 15.46065917 1.4375 13.6875 C1.14746094 12.70136719 0.85742188 11.71523438 0.55859375 10.69921875 C0 8 0 8 1 5 C0.60602665 2.36195411 0.60602665 2.36195411 0 0 Z " fill="#556E8B" transform="translate(87,20)"/>
<path d="M0 0 C2.78637633 4.1795645 1.79562512 6.14668677 1 11 C-0.5 9.625 -0.5 9.625 -2 8 C-2 7.34 -2 6.68 -2 6 C-3.093125 6.061875 -4.18625 6.12375 -5.3125 6.1875 C-9 6 -9 6 -12 3 C-8.04 3.33 -4.08 3.66 0 4 C0 2.68 0 1.36 0 0 Z " fill="#C74529" transform="translate(75,56)"/>
<path d="M0 0 C0.33 0.99 0.66 1.98 1 3 C0.34 3 -0.32 3 -1 3 C-1.268125 3.61875 -1.53625 4.2375 -1.8125 4.875 C-3 7 -3 7 -6 9 C-6.99 8.67 -7.98 8.34 -9 8 C-6.48592381 3.71675909 -4.87685861 1.35468295 0 0 Z M-10 9 C-9.67 9.99 -9.34 10.98 -9 12 C-10.65 13.32 -12.3 14.64 -14 16 C-14.66 15.67 -15.32 15.34 -16 15 C-14.02 13.02 -12.04 11.04 -10 9 Z " fill="#143070" transform="translate(83,67)"/>
<path d="M0 0 C2.97 0 5.94 0 9 0 C9 1.98 9 3.96 9 6 C2.25 5.25 2.25 5.25 0 3 C0 2.01 0 1.02 0 0 Z " fill="#B51917" transform="translate(52,64)"/>
<path d="M0 0 C4.09924523 -0.32150943 6.34355086 -0.41384837 9.875 1.8125 C12 4 12 4 13 7 C14.29355827 8.37195574 15.62298702 9.71182656 17 11 C15.02 11 13.04 11 11 11 C10.67 9.906875 10.34 8.81375 10 7.6875 C8.97294876 5.21255701 8.37149114 4.21249 6.01953125 2.8671875 C4.04580355 2.14756289 2.02370534 1.56398345 0 1 C0 0.67 0 0.34 0 0 Z " fill="#2D2351" transform="translate(69,20)"/>
<path d="M0 0 C1.1875 1.5625 1.1875 1.5625 2 4 C0.625 7.75 0.625 7.75 -1 11 C-1.66 11 -2.32 11 -3 11 C-3.4640625 12.670625 -3.4640625 12.670625 -3.9375 14.375 C-5 18 -5 18 -6 20 C-6.66 20 -7.32 20 -8 20 C-7.505 15.545 -7.505 15.545 -7 11 C-6.01 11 -5.02 11 -4 11 C-4 10.01 -4 9.02 -4 8 C-3.34 8 -2.68 8 -2 8 C-1.34 5.36 -0.68 2.72 0 0 Z " fill="#162A84" transform="translate(93,46)"/>
<path d="M0 0 C1.82355623 2.73533435 2.51551683 4.32643913 3.25 7.4375 C3.44078125 8.19933594 3.6315625 8.96117187 3.828125 9.74609375 C4.03309948 12.43405459 3.38592445 13.72977301 2 16 C0 15 0 15 -1 12 C-1.09338218 10.12686336 -1.12994843 8.25045638 -1.125 6.375 C-1.12757812 5.39273438 -1.13015625 4.41046875 -1.1328125 3.3984375 C-1 1 -1 1 0 0 Z " fill="#196DCD" transform="translate(34,42)"/>
<path d="M0 0 C-0.33 0.99 -0.66 1.98 -1 3 C-1.73605469 3.04898437 -2.47210938 3.09796875 -3.23046875 3.1484375 C-4.69419922 3.26058594 -4.69419922 3.26058594 -6.1875 3.375 C-7.15042969 3.44460937 -8.11335938 3.51421875 -9.10546875 3.5859375 C-12.02677636 3.88277553 -12.02677636 3.88277553 -14.67578125 5.1015625 C-17 6 -17 6 -20 5 C-13.01613678 0.75490667 -8.12410887 -0.13769676 0 0 Z " fill="#153070" transform="translate(66,14)"/>
<path d="M0 0 C0.66 0.33 1.32 0.66 2 1 C1.01 2.5159375 1.01 2.5159375 0 4.0625 C-2.15446336 7.89436698 -2.62299399 10.56116785 -2 15 C-0.86110083 17.78833934 0.48617742 20.39811744 2 23 C-0.75449251 22.44111746 -1.80272197 22.20408073 -3.8125 20.125 C-5.63432899 15.33071319 -5.10139718 10.95628733 -4 6 C-2.87648897 3.62612992 -1.70144707 2.03075941 0 0 Z " fill="#77648D" transform="translate(52,50)"/>
<path d="M0 0 C1.65 0.33 3.3 0.66 5 1 C5.33 2.65 5.66 4.3 6 6 C5.01 6 4.02 6 3 6 C3 5.01 3 4.02 3 3 C2.34 3 1.68 3 1 3 C1.33 4.65 1.66 6.3 2 8 C0.68 8 -0.64 8 -2 8 C-2.33 8.99 -2.66 9.98 -3 11 C-2.53199289 6.94393835 -2.12046792 3.53411321 0 0 Z " fill="#D46E28" transform="translate(68,35)"/>
<path d="M0 0 C2.01822917 0.06510417 4.03645833 0.13020833 6.0546875 0.1953125 C6.0546875 0.5253125 6.0546875 0.8553125 6.0546875 1.1953125 C3.7446875 1.1953125 1.4346875 1.1953125 -0.9453125 1.1953125 C-1.6053125 4.1653125 -2.2653125 7.1353125 -2.9453125 10.1953125 C-6.9053125 10.1953125 -10.8653125 10.1953125 -14.9453125 10.1953125 C-11.3011351 7.7658609 -9.23289978 8.03351675 -4.9453125 8.1953125 C-4.8215625 7.2465625 -4.6978125 6.2978125 -4.5703125 5.3203125 C-3.91580551 2.04777754 -3.54432152 0.35585557 0 0 Z " fill="#943D37" transform="translate(51.9453125,22.8046875)"/>
<path d="M0 0 C0.99 0.33 1.98 0.66 3 1 C4.09765625 3.3984375 4.09765625 3.3984375 5.0625 6.375 C6.15055885 9.68724342 7.05140257 12.07710386 9 15 C8.67 15.99 8.34 16.98 8 18 C3.559255 12.09297127 1.16208035 7.32110622 0 0 Z " fill="#154EA7" transform="translate(35,43)"/>
<path d="M0 0 C1.98 0 3.96 0 6 0 C6.28875 0.928125 6.5775 1.85625 6.875 2.8125 C7.8875 6.09791667 7.8875 6.09791667 10 9 C13.56769552 9.73606499 13.56769552 9.73606499 17 10 C16.01 10.99 15.02 11.98 14 13 C14 12.34 14 11.68 14 11 C13.278125 11.103125 12.55625 11.20625 11.8125 11.3125 C9 11 9 11 6.1875 8.8125 C4 6 4 6 3.6875 3.1875 C3.790625 2.465625 3.89375 1.74375 4 1 C2.68 0.67 1.36 0.34 0 0 Z " fill="#3B2940" transform="translate(39,37)"/>
<path d="M0 0 C0.99 0 1.98 0 3 0 C3 0.66 3 1.32 3 2 C3.61875 2.268125 4.2375 2.53625 4.875 2.8125 C7 4 7 4 9 7 C2.25 7.125 2.25 7.125 0 6 C0 4.02 0 2.04 0 0 Z " fill="#D63320" transform="translate(51,56)"/>
<path d="M0 0 C0.66 2.64 1.32 5.28 2 8 C1.01 8 0.02 8 -1 8 C-2.60546875 6.25 -2.60546875 6.25 -4.1875 4 C-4.71730469 3.2575 -5.24710937 2.515 -5.79296875 1.75 C-6.19128906 1.1725 -6.58960937 0.595 -7 0 C-4.3333581 -1.33332095 -2.83319697 -0.67102033 0 0 Z " fill="#8BAFD1" transform="translate(87,19)"/>
<path d="M0 0 C1.04220703 0.47566406 1.04220703 0.47566406 2.10546875 0.9609375 C5.26188644 2.09401052 7.97280167 2.40480011 11.3125 2.625 C12.91544922 2.73714844 12.91544922 2.73714844 14.55078125 2.8515625 C15.35902344 2.90054688 16.16726562 2.94953125 17 3 C14.7845346 5.5090813 14.23641796 5.96362801 10.75 6.5 C5.82071307 5.84276174 3.78458868 4.16669665 0 1 C0 0.67 0 0.34 0 0 Z " fill="#27305A" transform="translate(52,73)"/>
<path d="M0 0 C2.5625 0.1875 2.5625 0.1875 4.5625 2.1875 C4.6875 5.3125 4.6875 5.3125 4.5625 8.1875 C3.9025 8.1875 3.2425 8.1875 2.5625 8.1875 C2.2325 6.5375 1.9025 4.8875 1.5625 3.1875 C0.5725 2.8575 -0.4175 2.5275 -1.4375 2.1875 C-1.4375 4.1675 -1.4375 6.1475 -1.4375 8.1875 C-2.0975 8.1875 -2.7575 8.1875 -3.4375 8.1875 C-3.47991723 5.85455225 -3.47842937 3.52047433 -3.4375 1.1875 C-2.4375 0.1875 -2.4375 0.1875 0 0 Z " fill="#ECD39A" transform="translate(62.4375,21.8125)"/>
<path d="M0 0 C0.33 0.66 0.66 1.32 1 2 C2.65 2 4.3 2 6 2 C6 2.33 6 2.66 6 3 C5.07767578 2.98259766 5.07767578 2.98259766 4.13671875 2.96484375 C2.92435547 2.95130859 2.92435547 2.95130859 1.6875 2.9375 C0.88699219 2.92589844 0.08648437 2.91429687 -0.73828125 2.90234375 C-3.16861334 2.90342145 -3.16861334 2.90342145 -6 4 C-8.33299825 4.03954234 -10.66708189 4.04401732 -13 4 C-12.34 3.01 -11.68 2.02 -11 1 C-8.3984375 0.48828125 -8.3984375 0.48828125 -5.375 0.3125 C-3.87066406 0.21388672 -3.87066406 0.21388672 -2.3359375 0.11328125 C-1.56507812 0.07589844 -0.79421875 0.03851563 0 0 Z " fill="#436289" transform="translate(71,10)"/>
<path d="M0 0 C3.12290635 0.48578543 5.99580359 0.9986012 9 2 C8.67 2.66 8.34 3.32 8 4 C7.01 4 6.02 4 5 4 C5 4.99 5 5.98 5 7 C3.68 6.67 2.36 6.34 1 6 C1.33 5.34 1.66 4.68 2 4 C1.34 4 0.68 4 0 4 C0 2.68 0 1.36 0 0 Z " fill="#2657AF" transform="translate(59,89)"/>
<path d="M0 0 C0.66 0.33 1.32 0.66 2 1 C1.6875 3.875 1.6875 3.875 1 7 C-2 9 -2 9 -5 9 C-3.7508258 5.54074837 -2.32472205 2.85306797 0 0 Z " fill="#1B42B2" transform="translate(84,60)"/>
<path d="M0 0 C1.2065625 0.0309375 1.2065625 0.0309375 2.4375 0.0625 C2.7675 1.7125 3.0975 3.3625 3.4375 5.0625 C2.7775 4.7325 2.1175 4.4025 1.4375 4.0625 C1.4375 3.4025 1.4375 2.7425 1.4375 2.0625 C0.4475 2.0625 -0.5425 2.0625 -1.5625 2.0625 C-0.9025 4.0425 -0.2425 6.0225 0.4375 8.0625 C-0.5525 8.5575 -0.5525 8.5575 -1.5625 9.0625 C-3.71059171 5.84036243 -3.85636153 4.78474599 -3.5625 1.0625 C-2.5625 0.0625 -2.5625 0.0625 0 0 Z " fill="#ECD6A1" transform="translate(72.5625,24.9375)"/>
<path d="M0 0 C0.66 0.33 1.32 0.66 2 1 C2 1.99 2 2.98 2 4 C-1.37705625 3.46274105 -4.696686 2.88935377 -8 2 C-8 1.34 -8 0.68 -8 0 C-4.67803635 -1.10732122 -3.31749961 -0.85064093 0 0 Z " fill="#69A6D3" transform="translate(72,93)"/>
<path d="M0 0 C0.66 0.33 1.32 0.66 2 1 C2.59355614 3.64860427 2.74209269 6.29197322 3 9 C2.67 8.34 2.34 7.68 2 7 C-2.455 7.495 -2.455 7.495 -7 8 C-5.68 7.34 -4.36 6.68 -3 6 C-1.23272142 2.9665533 -1.23272142 2.9665533 0 0 Z " fill="#D77429" transform="translate(58,36)"/>
<path d="M0 0 C0.99 0 1.98 0 3 0 C2.67 2.64 2.34 5.28 2 8 C-0.31 8 -2.62 8 -5 8 C-5 7.34 -5 6.68 -5 6 C-3.35 6 -1.7 6 0 6 C0 4.02 0 2.04 0 0 Z " fill="#44244E" transform="translate(45,23)"/>
<path d="M0 0 C1.32 1.32 2.64 2.64 4 4 C3.34 4 2.68 4 2 4 C2.33 5.32 2.66 6.64 3 8 C3.66 8 4.32 8 5 8 C5 8.66 5 9.32 5 10 C3.0625 9.1875 3.0625 9.1875 1 8 C0.67 7.01 0.34 6.02 0 5 C-1.49985609 3.33289654 -1.49985609 3.33289654 -3 2 C-2.01 1.34 -1.02 0.68 0 0 Z " fill="#0B1947" transform="translate(54,79)"/>
<path d="M0 0 C0.33 0 0.66 0 1 0 C1 1.98 1 3.96 1 6 C1.66 6 2.32 6 3 6 C3.4125 7.093125 3.825 8.18625 4.25 9.3125 C5.60285591 12.51015942 6.94055844 14.20653426 10 16 C6.46491897 15.70540991 5.23796556 15.25118587 2.75 12.625 C-0.11376089 8.32935867 -0.09551883 5.06249775 0 0 Z " fill="#722134" transform="translate(49,58)"/>
<path d="M0 0 C3.3 0 6.6 0 10 0 C10 0.99 10 1.98 10 3 C4.58461538 4.23076923 4.58461538 4.23076923 1.625 3.0625 C1.08875 2.711875 0.5525 2.36125 0 2 C0 1.34 0 0.68 0 0 Z " fill="#5E2B3F" transform="translate(67,45)"/>
<path d="M0 0 C0.99 0.495 0.99 0.495 2 1 C3.04976964 4.14930893 3.10131595 6.38814456 3.0625 9.6875 C3.05347656 10.68136719 3.04445313 11.67523438 3.03515625 12.69921875 C3.02355469 13.45847656 3.01195313 14.21773437 3 15 C2.690625 14.360625 2.38125 13.72125 2.0625 13.0625 C1.1654837 11.06389179 1.1654837 11.06389179 0 10 C-0.07205511 8.31391034 -0.08386068 6.62499341 -0.0625 4.9375 C-0.05347656 4.01839844 -0.04445313 3.09929688 -0.03515625 2.15234375 C-0.02355469 1.44207031 -0.01195313 0.73179688 0 0 Z " fill="#2A3656" transform="translate(92,30)"/>
<path d="M0 0 C1.5625 1.0625 1.5625 1.0625 3 3 C2.6875 6.6875 2.6875 6.6875 2 10 C1.34 10 0.68 10 0 10 C-0.19412181 8.52168779 -0.38012131 7.04230684 -0.5625 5.5625 C-0.66691406 4.73878906 -0.77132812 3.91507813 -0.87890625 3.06640625 C-0.91886719 2.38449219 -0.95882812 1.70257813 -1 1 C-0.67 0.67 -0.34 0.34 0 0 Z " fill="#2C5096" transform="translate(91,38)"/>
<path d="M0 0 C-1.28299758 2.86207152 -2.530636 5.0245088 -5 7 C-5.99 7 -6.98 7 -8 7 C-8 6.01 -8 5.02 -8 4 C-3.77142857 0 -3.77142857 0 0 0 Z " fill="#971D1C" transform="translate(75,67)"/>
<path d="M0 0 C7.87006961 3.11832947 7.87006961 3.11832947 10 6 C10 6.66 10 7.32 10 8 C7.625 7.6875 7.625 7.6875 5 7 C4.34 6.01 3.68 5.02 3 4 C2.01 3.67 1.02 3.34 0 3 C0 2.01 0 1.02 0 0 Z " fill="#175EBD" transform="translate(39,63)"/>
<path d="M0 0 C0 3.63195496 -0.95453155 4.74713911 -3 7.6875 C-3.556875 8.49574219 -4.11375 9.30398437 -4.6875 10.13671875 C-5.120625 10.75160156 -5.55375 11.36648437 -6 12 C-6.609375 10.1953125 -6.609375 10.1953125 -7 8 C-4.97708454 4.38765096 -3.46128121 2.3075208 0 0 Z " fill="#377AD2" transform="translate(86,55)"/>
<path d="M0 0 C1.62463842 -0.05395478 3.24978541 -0.09277195 4.875 -0.125 C5.77992187 -0.14820313 6.68484375 -0.17140625 7.6171875 -0.1953125 C10 0 10 0 12 2 C9.36 2 6.72 2 4 2 C4.99 3.485 4.99 3.485 6 5 C1.25 4.25 1.25 4.25 -1 2 C-0.67 1.34 -0.34 0.68 0 0 Z " fill="#CF7851" transform="translate(58,48)"/>
<path d="M0 0 C0.33 0 0.66 0 1 0 C0.67 5.28 0.34 10.56 0 16 C-0.66 15.67 -1.32 15.34 -2 15 C-2.05406122 13.06280622 -2.09282025 11.12518079 -2.125 9.1875 C-2.14820312 8.10855469 -2.17140625 7.02960937 -2.1953125 5.91796875 C-2 3 -2 3 0 0 Z " fill="#132749" transform="translate(32,32)"/>
<path d="M0 0 C1.31677734 0.13148437 1.31677734 0.13148437 2.66015625 0.265625 C4.9375 0.75 4.9375 0.75 6.9375 2.75 C3.9675 2.255 3.9675 2.255 0.9375 1.75 C0.9375 2.41 0.9375 3.07 0.9375 3.75 C-3.5175 2.76 -3.5175 2.76 -8.0625 1.75 C-4.66746995 -0.51335337 -3.89242437 -0.43567637 0 0 Z " fill="#547DAD" transform="translate(73.0625,12.25)"/>
<path d="M0 0 C3 0 3 0 5.125 1.75 C6.96645436 3.95974524 7.60012981 5.20090866 8 8 C4.27382578 6.75794193 2.60708543 4.8889325 0 2 C0 1.34 0 0.68 0 0 Z " fill="#242E68" transform="translate(81,25)"/>
<path d="M0 0 C-2.66666667 1.33333333 -5.33333333 2.66666667 -8 4 C-8.66 3.01 -9.32 2.02 -10 1 C-6.42181037 -1.33958553 -4.07775191 -0.9267618 0 0 Z " fill="#5D9FDC" transform="translate(61,94)"/>
<path d="M0 0 C-0.33 0.99 -0.66 1.98 -1 3 C-0.01 3.99 0.98 4.98 2 6 C-0.875 5.6875 -0.875 5.6875 -4 5 C-4.66 4.01 -5.32 3.02 -6 2 C-2.25 0 -2.25 0 0 0 Z " fill="#77808C" transform="translate(92,81)"/>
<path d="M0 0 C1.66666667 1.66666667 3.33333333 3.33333333 5 5 C5.86625 5.7425 5.86625 5.7425 6.75 6.5 C8.44395709 8.5327485 8.65107359 10.41794457 9 13 C5.48026899 9.74098981 2.47239725 6.1139069 0 2 C0 1.34 0 0.68 0 0 Z " fill="#378EDE" transform="translate(39,56)"/>
<path d="M0 0 C0.042721 1.66611905 0.04063832 3.33382885 0 5 C-0.33 5.33 -0.66 5.66 -1 6 C-1.23075082 7.34747084 -1.41153063 8.70377565 -1.5625 10.0625 C-1.706875 11.361875 -1.85125 12.66125 -2 14 C-2.33 14 -2.66 14 -3 14 C-3 9.71 -3 5.42 -3 1 C-1 0 -1 0 0 0 Z " fill="#1E5290" transform="translate(35,37)"/>
<path d="M0 0 C1.32 0.33 2.64 0.66 4 1 C4 2.65 4 4.3 4 6 C2.68 6 1.36 6 0 6 C0 4.02 0 2.04 0 0 Z " fill="#CF6B2E" transform="translate(61,24)"/>
<path d="M0 0 C0.99 0.66 1.98 1.32 3 2 C3.1875 5.625 3.1875 5.625 3 9 C2.01 9 1.02 9 0 9 C0 8.34 0 7.68 0 7 C-0.66 6.67 -1.32 6.34 -2 6 C-1.34 6 -0.68 6 0 6 C0 4.02 0 2.04 0 0 Z " fill="#CB6629" transform="translate(67,24)"/>
<path d="M0 0 C1.16945792 0.80847729 2.33550461 1.62189112 3.5 2.4375 C4.47453125 3.11619141 4.47453125 3.11619141 5.46875 3.80859375 C5.9740625 4.20175781 6.479375 4.59492188 7 5 C7 5.33 7 5.66 7 6 C5.02 6 3.04 6 1 6 C0.67 4.02 0.34 2.04 0 0 Z " fill="#452953" transform="translate(79,25)"/>
<path d="M0 0 C0.66 0.33 1.32 0.66 2 1 C1.8864371 2.64666203 1.75882619 4.29236082 1.625 5.9375 C1.52058594 7.31228516 1.52058594 7.31228516 1.4140625 8.71484375 C1.27742188 9.46894531 1.14078125 10.22304688 1 11 C0.01 11.495 0.01 11.495 -1 12 C-2.11658501 7.31034294 -1.80619523 4.46236469 0 0 Z " fill="#506081" transform="translate(91,27)"/>
<path d="M0 0 C0 0.99 0 1.98 0 3 C-1.2065625 3.4021875 -1.2065625 3.4021875 -2.4375 3.8125 C-3.283125 4.204375 -4.12875 4.59625 -5 5 C-5.33 5.99 -5.66 6.98 -6 8 C-6.66 8 -7.32 8 -8 8 C-7.9375 6.25 -7.9375 6.25 -7 4 C-4.75835678 2.40498463 -2.46433357 1.25456982 0 0 Z " fill="#2E344A" transform="translate(57,9)"/>
<path d="M0 0 C-1.32 0.99 -2.64 1.98 -4 3 C-5.32 1.68 -6.64 0.36 -8 -1 C-4.37673261 -2.2077558 -3.35853631 -1.54311128 0 0 Z " fill="#5383BE" transform="translate(74,90)"/>
<path d="M0 0 C0.33 0.66 0.66 1.32 1 2 C3.02463255 2.65213292 3.02463255 2.65213292 5 3 C5 3.66 5 4.32 5 5 C1.62537285 4.45276317 -0.08235 3.9451 -3 2 C-2.01 1.34 -1.02 0.68 0 0 Z " fill="#8A9BC0" transform="translate(81,88)"/>
<path d="M0 0 C0.99 0.33 1.98 0.66 3 1 C3 1.66 3 2.32 3 3 C2.34 3 1.68 3 1 3 C1 3.66 1 4.32 1 5 C-0.98 5 -2.96 5 -5 5 C-3.35 3.35 -1.7 1.7 0 0 Z " fill="#0C163A" transform="translate(71,80)"/>
<path d="M0 0 C0.99 0.66 1.98 1.32 3 2 C-0.4352048 4.29013653 -1.985331 4.17842973 -6 4 C-6 3.34 -6 2.68 -6 2 C-3.1875 0.875 -3.1875 0.875 0 0 Z " fill="#8F9EB2" transform="translate(81,77)"/>
<path d="M0 0 C0.66 0 1.32 0 2 0 C1.49396008 2.16874252 1.00016187 3.99967627 0 6 C-0.66 6 -1.32 6 -2 6 C-1.34 4.02 -0.68 2.04 0 0 Z M-3 6 C-2.67 6.99 -2.34 7.98 -2 9 C-2.66 9 -3.32 9 -4 9 C-3.67 8.01 -3.34 7.02 -3 6 Z " fill="#1F3FB0" transform="translate(91,48)"/>
<path d="M0 0 C0.33 1.32 0.66 2.64 1 4 C-0.65 4 -2.3 4 -4 4 C-4 4.66 -4 5.32 -4 6 C-4.66 6 -5.32 6 -6 6 C-5.8125 4.125 -5.8125 4.125 -5 2 C-2.4375 0.75 -2.4375 0.75 0 0 Z " fill="#1D1D52" transform="translate(44,25)"/>
<path d="M0 0 C2.35953094 2.35953094 2.49141413 3.77895617 3 7 C2.01 7 1.02 7 0 7 C-1.125 2.25 -1.125 2.25 0 0 Z " fill="#789ABD" transform="translate(86,20)"/>
<path d="M0 0 C0.99 0.33 1.98 0.66 3 1 C3 1.66 3 2.32 3 3 C2.360625 3.12375 1.72125 3.2475 1.0625 3.375 C0.381875 3.58125 -0.29875 3.7875 -1 4 C-1.33 4.66 -1.66 5.32 -2 6 C-2.66 5.67 -3.32 5.34 -4 5 C-4 4.34 -4 3.68 -4 3 C-2.68 2.67 -1.36 2.34 0 2 C0 1.34 0 0.68 0 0 Z " fill="#8995AD" transform="translate(43,88)"/>
<path d="M0 0 C0.99 0.66 1.98 1.32 3 2 C2.67 3.32 2.34 4.64 2 6 C0.35 6 -1.3 6 -3 6 C-2.505 5.566875 -2.01 5.13375 -1.5 4.6875 C0.33218192 3.00259517 0.33218192 3.00259517 0 0 Z " fill="#707F8C" transform="translate(34,81)"/>
<path d="M0 0 C2.64 1.98 5.28 3.96 8 6 C7.67 6.99 7.34 7.98 7 9 C3.87386607 6.03839944 1.95216435 3.90432869 0 0 Z " fill="#2B61AA" transform="translate(49,71)"/>
<path d="M0 0 C0.66 0.33 1.32 0.66 2 1 C1.67 3.31 1.34 5.62 1 8 C0.01 8.33 -0.98 8.66 -2 9 C-1.34 6.03 -0.68 3.06 0 0 Z " fill="#194591" transform="translate(88,43)"/>
<path d="M0 0 C1.47906892 -0.02689216 2.95827483 -0.04634621 4.4375 -0.0625 C5.26121094 -0.07410156 6.08492187 -0.08570313 6.93359375 -0.09765625 C9 0 9 0 10 1 C10.04063832 2.66617115 10.042721 4.33388095 10 6 C9.649375 5.360625 9.29875 4.72125 8.9375 4.0625 C6.22815794 1.17836168 3.84141089 1.2899178 0 1 C0 0.67 0 0.34 0 0 Z " fill="#803024" transform="translate(38,36)"/>
<path d="M0 0 C0.99 0 1.98 0 3 0 C3.66 1.32 4.32 2.64 5 4 C4.01 4.66 3.02 5.32 2 6 C0 3 0 3 0 0 Z " fill="#D76F2B" transform="translate(71,27)"/>
<path d="M0 0 C0 3 0 3 -1.5 4.6875 C-1.995 5.120625 -2.49 5.55375 -3 6 C-3.99 5.67 -4.98 5.34 -6 5 C-2.25 1.125 -2.25 1.125 0 0 Z " fill="#2E589C" transform="translate(73,74)"/>
<path d="M0 0 C3.63 0.66 7.26 1.32 11 2 C11 2.33 11 2.66 11 3 C7.7 3 4.4 3 1 3 C0.67 2.01 0.34 1.02 0 0 Z " fill="#E34B27" transform="translate(57,56)"/>
<path d="M0 0 C0.66 0.33 1.32 0.66 2 1 C1.67 1.33 1.34 1.66 1 2 C2.32 2.99 3.64 3.98 5 5 C3.824375 4.9690625 3.824375 4.9690625 2.625 4.9375 C0.01885039 4.81315937 0.01885039 4.81315937 -2 6 C-1.125 1.125 -1.125 1.125 0 0 Z " fill="#CA5730" transform="translate(54,50)"/>
<path d="M0 0 C1.32 0 2.64 0 4 0 C3.67 2.31 3.34 4.62 3 7 C2.34 6.67 1.68 6.34 1 6 C0.375 2.9375 0.375 2.9375 0 0 Z " fill="#CE6C30" transform="translate(61,35)"/>
<path d="" fill="#7FFFFF" transform="translate(0,0)"/>
</svg>
